<svg width="158" height="80" viewBox="0 0 158 80" fill="none" xmlns="http://www.w3.org/2000/svg">
<path d="M0.629077 0.539551C6.06294 0.541636 11.4968 0.539551 16.9307 0.541636C19.7207 0.564572 22.5359 1.56333 24.5778 3.48579C26.2727 5.05378 27.3511 7.32445 27.278 9.65141C27.3449 11.7615 26.6803 13.9175 25.3134 15.546C24.2246 16.8825 22.6989 17.7979 21.0855 18.365C22.7721 18.8446 24.396 19.7745 25.3929 21.2508C26.1787 22.3601 26.4755 23.7341 26.488 25.0749C26.4901 27.5478 26.4922 30.0207 26.4859 32.4936C24.1891 32.4895 21.8922 32.4936 19.5953 32.4915C19.5912 30.5065 19.5995 28.5215 19.5933 26.5365C19.5452 25.1186 19.2212 23.6069 18.193 22.5644C17.1041 21.4781 15.5011 21.1507 14.0173 21.084C12.4624 21.0652 10.9095 21.0819 9.35461 21.0777C9.36088 19.2324 9.33789 17.3892 9.36715 15.5439C11.6076 15.5647 13.848 15.546 16.0884 15.5543C17.6538 15.5522 19.1648 14.5868 19.8294 13.1711C20.7385 11.307 20.4648 8.74857 18.8158 7.37241C17.8816 6.60926 16.6464 6.31735 15.4593 6.3236C12.6902 6.32986 9.92307 6.32152 7.15598 6.32777C7.15807 13.1377 7.15598 19.9476 7.15598 26.7596C4.98035 26.7596 2.80262 26.7596 0.626987 26.7596C0.626987 18.0189 0.624897 9.28027 0.629077 0.539551Z" fill="white"/>
<path d="M83.1819 0.539551C85.4265 0.541636 87.6711 0.541636 89.9178 0.539551C89.9178 7.42036 89.9199 14.3012 89.9178 21.182C91.642 21.1841 93.3662 21.182 95.0925 21.1841C97.2974 21.2153 99.2829 19.3346 99.494 17.1682C99.8576 14.885 98.2839 12.3933 95.9515 11.9846C94.7163 11.8095 93.4624 11.9429 92.221 11.9033C92.2189 10.0434 92.221 8.18559 92.2189 6.32777C93.6651 6.32152 95.1114 6.32986 96.5576 6.3236C99.5901 6.26105 102.554 7.84364 104.33 10.2728C106.115 12.6831 106.711 15.8712 106.127 18.7904C105.304 22.4372 102.171 25.2104 98.6664 26.2696C96.9045 26.843 95.0298 26.8201 93.199 26.8097C89.8593 26.8097 86.5196 26.8097 83.1798 26.8097C83.1798 18.0523 83.1778 9.29695 83.1819 0.539551Z" fill="white"/>
<path d="M136.108 0.541603C138.371 0.539518 140.635 0.539518 142.9 0.541603C142.9 4.70971 142.898 8.8799 142.9 13.0501C144.317 13 145.755 13.1752 147.159 12.9166C148.476 12.6456 149.542 11.6343 149.998 10.3895C150.541 9.08632 150.501 7.6476 150.547 6.26519C152.771 6.28812 154.995 6.26727 157.22 6.27561C157.164 8.43577 157.183 10.7419 156.052 12.6664C155.085 14.347 153.258 15.277 151.473 15.8504C153.586 16.4425 155.643 17.7144 156.587 19.7641C157.686 21.9368 157.308 24.4201 157.373 26.7596C155.126 26.7596 152.88 26.7596 150.635 26.7596C150.505 24.8225 151.034 22.7041 149.989 20.9401C149.182 19.4826 147.496 18.7486 145.889 18.6444C144.894 18.6027 143.895 18.6402 142.9 18.6277C142.898 21.3383 142.898 24.049 142.9 26.7575C140.635 26.7596 138.371 26.7596 136.108 26.7575C136.11 18.0189 136.108 9.28023 136.108 0.541603Z" fill="white"/>
<path d="M117.992 6.25699C121.321 5.67317 124.91 5.96508 127.928 7.56852C130.231 8.79038 132.032 10.9255 132.772 13.4276C133.684 16.5198 133.314 20.0666 131.428 22.7334C129.84 25.0249 127.278 26.5095 124.584 27.1121C121.443 27.8064 118.049 27.5875 115.116 26.2134C112.303 24.9102 110.009 22.3998 109.242 19.3702C108.454 16.2488 109.045 12.725 111.074 10.1811C112.774 8.05226 115.336 6.73865 117.992 6.25699ZM119.652 11.4551C117.227 12.0598 115.426 14.4931 115.599 16.9869C115.697 18.7634 116.722 20.469 118.264 21.3698C119.794 22.3226 121.798 22.4102 123.416 21.6179C125.905 20.4711 127.207 17.3205 126.162 14.7725C125.246 12.2266 122.258 10.6899 119.652 11.4551Z" fill="white"/>
<path d="M31.1277 11.0881C32.8958 8.24822 36.129 6.38623 39.4854 6.33201C43.845 6.31742 48.2026 6.32993 52.5601 6.32576C52.5288 8.32119 52.6249 10.3312 52.5141 12.3141C51.0951 14.5661 49.6426 16.7992 48.213 19.0448C46.0478 19.0386 43.8847 19.0553 41.7217 19.0365C43.1533 16.6616 44.5911 14.2887 46.004 11.9034C44.2568 11.8992 42.5096 11.9076 40.7603 11.8992C39.1803 11.8471 37.6483 12.7604 36.8333 14.0927C35.8552 15.6399 35.9137 17.7729 37.0005 19.2533C37.8761 20.5253 39.4164 21.2634 40.9526 21.2363C44.821 21.2363 48.6916 21.2342 52.5601 21.2363C52.5601 23.0941 52.5622 24.9519 52.5601 26.8097C48.8337 26.8118 45.1074 26.8097 41.381 26.8118C39.8512 26.8139 38.2858 26.8285 36.8103 26.3656C33.8906 25.5149 31.437 23.2588 30.3126 20.4439C29.0754 17.4331 29.3722 13.8384 31.1277 11.0881Z" fill="white"/>
<path d="M59.877 8.30439C61.5824 7.02414 63.7058 6.34857 65.8333 6.32563C70.1177 6.32355 74.4021 6.32563 78.6844 6.32563C78.6886 8.31898 78.6782 10.3123 78.6907 12.3057C77.2507 14.5513 75.8149 16.8011 74.3708 19.0447C72.2098 19.0426 70.0509 19.0447 67.8898 19.0447C69.3006 16.6552 70.7489 14.2886 72.1701 11.9033C70.2619 11.9074 68.3538 11.8887 66.4457 11.9095C63.9106 12.1139 61.9147 14.7015 62.3369 17.1994C62.6148 19.3616 64.5668 21.1652 66.7613 21.2236C70.7531 21.2507 74.7449 21.2299 78.7346 21.2341C78.7409 23.0919 78.7346 24.9497 78.7388 26.8096C74.446 26.7992 70.1533 26.8346 65.8605 26.7929C63.2188 26.7908 60.5855 25.7212 58.738 23.83C56.5393 21.7011 55.4379 18.5318 55.7723 15.5021C56.0419 12.6685 57.5718 9.9808 59.877 8.30439Z" fill="white"/>
<path d="M113.267 40.734C127.959 39.1139 142.702 37.9587 157.45 37.0142C149.475 39.0409 141.473 40.9925 133.573 43.3132C122.479 46.4721 111.662 50.5006 100.978 54.8167C95.3873 51.5243 89.7758 48.2695 84.1893 44.9709C93.8052 43.0901 103.534 41.8412 113.267 40.734Z" fill="white"/>
<path d="M7.02222 37.9128C25.4075 37.9358 43.7948 37.8857 62.1759 37.9379C66.1928 39.9541 70.0655 42.254 73.9841 44.4538C89.1655 53.1549 104.265 61.9999 119.29 70.9658C122.901 73.1259 126.515 75.2798 130.089 77.5025C130.872 78.0155 131.7 78.4679 132.427 79.0622C116.193 72.2564 100.102 65.09 83.6418 58.8388C69.6078 53.4802 55.2791 48.8888 40.7143 45.2023C32.6742 43.1443 24.5673 41.3553 16.427 39.7373C13.3004 39.093 10.1383 38.5968 7.02222 37.9128Z" fill="white"/>
<path d="M27.1923 64.7333C34.829 59.7374 43.2619 56.078 51.8433 53.0359C56.9574 54.4121 61.9837 56.1114 67.0225 57.7399C60.3222 60.39 53.883 63.7595 48.0834 68.0465C44.3759 70.828 40.8042 73.8827 37.9827 77.5795C29.6606 77.5837 21.3384 77.5879 13.0183 77.5774C16.9704 72.5336 21.8379 68.2446 27.1923 64.7333Z" fill="white"/>
<path d="M52.6019 71.9624C58.3513 66.7476 65.0475 62.6337 72.1303 59.4832C76.1305 60.8781 80.1014 62.3606 84.0556 63.8827C80.6343 66.3118 77.2277 68.8202 74.3833 71.9249C72.7448 73.6764 71.2964 75.5947 69.9568 77.5797C62.4288 77.588 54.9008 77.5776 47.3728 77.5859C48.8901 75.5154 50.723 73.7014 52.6019 71.9624Z" fill="white"/>
</svg>
